<?xml version="1.0" encoding="UTF-8" standalone="no"?>
<!-- Created with Inkscape (http://www.inkscape.org/) -->

<svg
   xmlns:dc="http://purl.org/dc/elements/1.1/"
   xmlns:cc="http://creativecommons.org/ns#"
   xmlns:rdf="http://www.w3.org/1999/02/22-rdf-syntax-ns#"
   xmlns:svg="http://www.w3.org/2000/svg"
   xmlns="http://www.w3.org/2000/svg"
   version="1.1"
   width="87.606003"
   height="52.368958"
   id="svg4892"
   viewBox="0 0 87.606003 52.368958">
  <defs
     id="defs4894" />
  <metadata
     id="metadata4897">
    <rdf:RDF>
      <cc:Work
         rdf:about="">
        <dc:format>image/svg+xml</dc:format>
        <dc:type
           rdf:resource="http://purl.org/dc/dcmitype/StillImage" />
        <dc:title></dc:title>
      </cc:Work>
    </rdf:RDF>
  </metadata>
  <g
     transform="translate(-587.62557,-477.60628)"
     id="layer1">
    <g
       transform="matrix(1.25,0,0,-1.25,667.57532,525.63378)"
       id="g1610">
      <path
         d="m 0,0 c -3.274,0.463 -7.398,3.43 -7.712,6.85 l 0.444,0.334 C -7.495,7.051 -7.728,6.932 -7.962,6.82 c 4.682,3.289 7.654,8.193 7.654,13.672 0,9.903 -9.699,17.93 -21.665,17.93 -11.965,0 -21.665,-8.027 -21.665,-17.93 0,-9.902 9.7,-17.929 21.665,-17.929 2.021,0 3.974,0.233 5.827,0.66 3.98,-6.103 12.156,-8.567 18.852,-5.141 0.9,0.46 2.842,3.005 3.419,3.106 C 4.062,0.823 2.208,-0.312 0,0"
         id="path1612"
         style="fill:#ffffff;fill-opacity:1;fill-rule:nonzero;stroke:none" />
    </g>
    <g
       transform="matrix(1.25,0,0,-1.25,593.26557,515.16508)"
       id="g1618">
      <path
         d="M 0,0 C 2.412,0.342 5.45,2.526 5.681,5.047 L 5.354,5.293 C 5.521,5.193 5.693,5.106 5.865,5.025 2.417,7.447 0.227,11.061 0.227,15.096 c 0,7.296 7.144,13.21 15.96,13.21 8.813,0 15.961,-5.914 15.961,-13.21 C 32.148,7.803 25,1.889 16.187,1.889 14.698,1.889 13.259,2.06 11.894,2.375 8.962,-2.121 2.939,-3.936 -1.994,-1.413 -2.657,-1.074 -4.087,0.801 -4.512,0.877 -2.993,0.607 -1.626,-0.23 0,0"
         id="path1620"
         style="fill:#ffffff;fill-opacity:1;fill-rule:nonzero;stroke:none" />
    </g>
  </g>
</svg>
