<?xml version="1.0" encoding="UTF-8" standalone="no"?>
<!-- Created with Inkscape (http://www.inkscape.org/) -->

<svg
   xmlns:dc="http://purl.org/dc/elements/1.1/"
   xmlns:cc="http://creativecommons.org/ns#"
   xmlns:rdf="http://www.w3.org/1999/02/22-rdf-syntax-ns#"
   xmlns:svg="http://www.w3.org/2000/svg"
   xmlns="http://www.w3.org/2000/svg"
   version="1.1"
   width="51.911652"
   height="49.038052"
   id="svg7106"
   viewBox="0 0 51.911652 49.038052">
  <defs
     id="defs7108" />
  <metadata
     id="metadata7111">
    <rdf:RDF>
      <cc:Work
         rdf:about="">
        <dc:format>image/svg+xml</dc:format>
        <dc:type
           rdf:resource="http://purl.org/dc/dcmitype/StillImage" />
        <dc:title></dc:title>
      </cc:Work>
    </rdf:RDF>
  </metadata>
  <g
     transform="translate(-234.04418,-159.27173)"
     id="layer1">
    <g
       transform="matrix(1.25,0,0,-1.25,259.64783,159.27173)"
       id="g1076"
       style="opacity:0.80000299">
      <path
         d="M 0,0 C 4.766,-6.32 5.354,-10.545 2.577,-18.426 0.802,-23.463 0,-30.092 0,-30.092 c 0,0 -0.796,6.629 -2.571,11.666 C -5.342,-10.545 -4.761,-6.32 0,0"
         id="path1078"
         style="fill:#a4c547;fill-opacity:1;fill-rule:nonzero;stroke:none" />
    </g>
    <g
       transform="matrix(1.25,0,0,-1.25,260.09703,196.88163)"
       id="g1080"
       style="opacity:0.80000299">
      <path
         d="m 0,0 c 0,0 8.338,2.738 11.548,8.943 3.211,6.203 1.494,10.407 1.101,11.379 0,0 -5.07,-2.371 -6.145,-8.181 C 5.738,7.949 4.601,2.289 0,0"
         id="path1082"
         style="fill:#a4c547;fill-opacity:1;fill-rule:nonzero;stroke:none" />
    </g>
    <g
       transform="matrix(1.25,0,0,-1.25,259.20713,196.88163)"
       id="g1084"
       style="opacity:0.80000299">
      <path
         d="m 0,0 c 0,0 -8.338,2.738 -11.542,8.943 -3.217,6.203 -1.504,10.407 -1.105,11.379 0,0 5.066,-2.371 6.134,-8.181 C -5.736,7.949 -4.599,2.289 0,0"
         id="path1086"
         style="fill:#a4c547;fill-opacity:1;fill-rule:nonzero;stroke:none" />
    </g>
    <g
       transform="matrix(1.25,0,0,-1.25,260.44383,199.05453)"
       id="g1088"
       style="opacity:0.80000299">
      <path
         d="m 0,0 c 0,0 2.205,-3.836 5.605,-4.785 3.393,-0.953 5.295,0.326 5.738,0.619 0,0 -1.728,1.742 -4.672,2.195 C 4.802,-1.678 1.605,-2.039 0,0"
         id="path1090"
         style="fill:#a4c547;fill-opacity:1;fill-rule:nonzero;stroke:none" />
    </g>
    <g
       transform="matrix(1.25,0,0,-1.25,259.43793,197.89723)"
       id="g1092"
       style="opacity:0.80000299">
      <path
         d="m 0,0 c 0,0 -7.211,-2.977 -12.969,-0.654 -5.767,2.324 -7.045,6.156 -7.346,7.045 0,0 4.798,1.334 8.889,-1.967 C -8.474,2.045 -4.425,-1.119 0,0"
         id="path1094"
         style="fill:#a4c547;fill-opacity:1;fill-rule:nonzero;stroke:none" />
    </g>
    <g
       transform="matrix(1.25,0,0,-1.25,260.56833,197.89723)"
       id="g1096"
       style="opacity:0.80000299">
      <path
         d="m 0,0 c 0,0 7.206,-2.977 12.974,-0.654 5.763,2.324 7.038,6.156 7.336,7.045 0,0 -4.792,1.334 -8.884,-1.967 C 8.474,2.045 4.427,-1.119 0,0"
         id="path1098"
         style="fill:#a4c547;fill-opacity:1;fill-rule:nonzero;stroke:none" />
    </g>
    <g
       transform="matrix(1.25,0,0,-1.25,258.86173,199.05453)"
       id="g1100"
       style="opacity:0.80000299">
      <path
         d="m 0,0 c 0,0 -2.21,-3.836 -5.604,-4.785 -3.399,-0.953 -5.299,0.326 -5.739,0.619 0,0 1.723,1.742 4.669,2.195 C -4.805,-1.678 -1.61,-2.039 0,0"
         id="path1102"
         style="fill:#a4c547;fill-opacity:1;fill-rule:nonzero;stroke:none" />
    </g>
    <path
       d="m 259.64783,199.82603 c 0,0 1.94125,8.48375 0,8.48375 -1.93375,0 0,-8.48375 0,-8.48375"
       id="path1106"
       style="opacity:0.80000299;fill:#a4c547;fill-opacity:1;fill-rule:nonzero;stroke:none" />
  </g>
</svg>
