<?xml version="1.0" encoding="UTF-8" standalone="no"?>
<!-- Created with Inkscape (http://www.inkscape.org/) -->

<svg
   xmlns:dc="http://purl.org/dc/elements/1.1/"
   xmlns:cc="http://creativecommons.org/ns#"
   xmlns:rdf="http://www.w3.org/1999/02/22-rdf-syntax-ns#"
   xmlns:svg="http://www.w3.org/2000/svg"
   xmlns="http://www.w3.org/2000/svg"
   version="1.1"
   width="69.531738"
   height="56.219551"
   id="svg7470"
   viewBox="0 0 69.531738 56.219551">
  <defs
     id="defs7472" />
  <metadata
     id="metadata7475">
    <rdf:RDF>
      <cc:Work
         rdf:about="">
        <dc:format>image/svg+xml</dc:format>
        <dc:type
           rdf:resource="http://purl.org/dc/dcmitype/StillImage" />
        <dc:title></dc:title>
      </cc:Work>
    </rdf:RDF>
  </metadata>
  <g
     transform="translate(-362.37699,-392.82384)"
     id="layer1">
    <g
       transform="matrix(1.25,0,0,-1.25,395.35248,425.01134)"
       id="g1566">
      <path
         d="M 0,0 C 2.194,0.311 4.958,2.298 5.168,4.59 L 4.87,4.814 C 5.022,4.725 5.178,4.645 5.336,4.57 2.198,6.774 0.205,10.061 0.205,13.733 c 0,6.637 6.501,12.017 14.52,12.017 8.02,0 14.52,-5.38 14.52,-12.017 0,-6.636 -6.5,-12.016 -14.52,-12.016 -1.353,0 -2.662,0.156 -3.904,0.443 C 8.153,-1.931 2.674,-3.581 -1.814,-1.286 -2.417,-0.978 -3.719,0.729 -4.105,0.797 -2.723,0.552 -1.48,-0.21 0,0"
         id="path1568"
         style="fill:#ffffff;fill-opacity:1;fill-rule:nonzero;stroke:none" />
    </g>
    <g
       transform="matrix(1.25,0,0,-1.25,369.06824,426.90714)"
       id="g1574">
      <path
         d="m 0,0 c 0,0 -2.627,-2.821 -3.989,-7.783 -0.633,-2.303 -1.364,-9.926 -1.364,-9.926 l 23.063,0.096 c 0,0 -0.681,5.937 -1.752,9.537 -1.043,3.512 -3.601,7.979 -3.601,7.979 L 0,0 z"
         id="path1576"
         style="fill:#ffffff;fill-opacity:1;fill-rule:nonzero;stroke:none" />
    </g>
    <g
       transform="matrix(1.25,0,0,-1.25,386.09949,420.09564)"
       id="g1582">
      <path
         d="m 0,0 c 0,-4.137 -3.355,-7.492 -7.494,-7.492 -4.139,0 -7.494,3.355 -7.494,7.492 0,4.141 3.355,7.495 7.494,7.495 C -3.355,7.495 0,4.141 0,0"
         id="path1584"
         style="fill:#ffffff;fill-opacity:1;fill-rule:nonzero;stroke:none" />
    </g>
  </g>
</svg>
