<?xml version="1.0" encoding="UTF-8" standalone="no"?>
<!-- Created with Inkscape (http://www.inkscape.org/) -->

<svg
   xmlns:dc="http://purl.org/dc/elements/1.1/"
   xmlns:cc="http://creativecommons.org/ns#"
   xmlns:rdf="http://www.w3.org/1999/02/22-rdf-syntax-ns#"
   xmlns:svg="http://www.w3.org/2000/svg"
   xmlns="http://www.w3.org/2000/svg"
   version="1.1"
   width="52.142464"
   height="46.19125"
   id="svg4194"
   viewBox="0 0 52.142464 46.19125">
  <defs
     id="defs4196" />
  <metadata
     id="metadata4199">
    <rdf:RDF>
      <cc:Work
         rdf:about="">
        <dc:format>image/svg+xml</dc:format>
        <dc:type
           rdf:resource="http://purl.org/dc/dcmitype/StillImage" />
        <dc:title></dc:title>
      </cc:Work>
    </rdf:RDF>
  </metadata>
  <g
     transform="translate(-323.92876,-509.26656)"
     id="layer1">
    <g
       transform="matrix(1.25,0,0,-1.25,373.61829,514.49031)"
       id="g506">
      <path
         d="m 0,0 c -1.785,2.348 -4.597,3.696 -8.598,4.125 -0.323,0.033 -0.666,0.054 -1.016,0.054 -3.548,0 -7.081,-1.664 -9.281,-4.308 -2.2,2.644 -5.732,4.308 -9.277,4.308 -0.351,0 -0.691,-0.021 -1.021,-0.054 -3.995,-0.429 -6.805,-1.777 -8.592,-4.124 -1.774,-2.325 -2.352,-5.479 -1.717,-9.37 0.237,-1.445 0.893,-2.97 1.834,-4.532 l 5.908,0 0.621,9.899 c 0.05,0.781 0.647,1.417 1.422,1.517 0.778,0.098 1.514,-0.367 1.758,-1.111 l 4.697,-14.315 2.608,10.345 c 0.181,0.722 0.83,1.229 1.574,1.233 l 0.008,0 c 0.742,0 1.39,-0.501 1.578,-1.218 l 1.664,-6.342 1.508,2.456 c 0.254,0.416 0.681,0.696 1.164,0.763 0.482,0.068 0.969,-0.084 1.328,-0.413 l 1.725,-1.579 3.064,0 c 0.902,0 1.633,-0.73 1.633,-1.632 0,-0.901 -0.731,-1.632 -1.633,-1.632 l -3.699,0 c -0.408,0 -0.801,0.153 -1.103,0.429 l -0.733,0.671 -2.473,-4.028 c -0.342,-0.557 -0.982,-0.857 -1.629,-0.761 -0.646,0.096 -1.174,0.568 -1.34,1.201 l -1.023,3.898 -2.432,-9.652 c -0.177,-0.704 -0.799,-1.207 -1.525,-1.232 l -0.059,0 c -0.703,0 -1.33,0.451 -1.55,1.123 l -3.806,11.601 -0.187,-2.956 c -0.052,-0.859 -0.766,-1.529 -1.629,-1.529 l -5.13,0 c 2.832,-3.538 6.632,-7.114 9.97,-10.254 l 0.135,-0.126 c 1.635,-1.542 3.049,-2.872 3.969,-3.862 0.125,-0.14 1.246,-1.367 2.474,-1.367 1.237,0 2.333,1.246 2.432,1.366 0.979,1.06 2.566,2.564 4.135,4.047 5.808,5.51 13.039,12.369 13.955,17.994 C 2.348,-5.479 1.773,-2.326 0,0"
         id="path508"
         style="fill:#ffffff;fill-opacity:1;fill-rule:nonzero;stroke:none" />
    </g>
  </g>
</svg>
