<?xml version="1.0" encoding="UTF-8" standalone="no"?>
<!-- Created with Inkscape (http://www.inkscape.org/) -->

<svg
   xmlns:dc="http://purl.org/dc/elements/1.1/"
   xmlns:cc="http://creativecommons.org/ns#"
   xmlns:rdf="http://www.w3.org/1999/02/22-rdf-syntax-ns#"
   xmlns:svg="http://www.w3.org/2000/svg"
   xmlns="http://www.w3.org/2000/svg"
   version="1.1"
   width="33.132584"
   height="30.9821"
   id="svg4166"
   viewBox="0 0 33.132584 30.9821">
  <defs
     id="defs4168" />
  <metadata
     id="metadata4171">
    <rdf:RDF>
      <cc:Work
         rdf:about="">
        <dc:format>image/svg+xml</dc:format>
        <dc:type
           rdf:resource="http://purl.org/dc/dcmitype/StillImage" />
        <dc:title></dc:title>
      </cc:Work>
    </rdf:RDF>
  </metadata>
  <g
     transform="translate(-523.43371,-408.2997)"
     id="layer1">
    <g
       transform="matrix(1.25,0,0,-1.25,546.23871,423.79095)"
       id="g882">
      <path
         d="m 0,0 0,2.754 4.706,0 L 4.314,0 0,0 z m -10.996,2.754 4.112,0 0,-2.754 -3.654,0 -0.458,2.754 z m 4.112,4.131 0,-2.754 -4.132,0 c -0.073,0 -0.138,-0.021 -0.204,-0.041 l -0.465,2.795 4.801,0 z M -1.377,0 l -4.131,0 0,2.754 4.131,0 0,-2.754 z m 0,4.131 -4.131,0 0,2.754 4.131,0 0,-2.754 z M 5.298,6.885 4.905,4.131 0,4.131 l 0,2.754 5.298,0 z M 7.926,9.164 C 7.663,9.465 7.284,9.639 6.885,9.639 l -19.029,0 -0.267,1.603 c -0.111,0.663 -0.686,1.151 -1.359,1.151 l -3.098,0 c -0.761,0 -1.376,-0.616 -1.376,-1.377 0,-0.762 0.615,-1.377 1.376,-1.377 l 1.932,0 2.562,-15.372 c 0.011,-0.062 0.042,-0.114 0.061,-0.171 0.023,-0.073 0.041,-0.142 0.075,-0.208 0.044,-0.091 0.103,-0.168 0.165,-0.246 0.043,-0.054 0.082,-0.108 0.131,-0.155 0.08,-0.074 0.171,-0.127 0.265,-0.179 0.053,-0.029 0.098,-0.067 0.155,-0.089 0.16,-0.065 0.328,-0.104 0.505,-0.104 l 15.148,0 c 0.762,0 1.378,0.616 1.378,1.377 0,0.762 -0.616,1.377 -1.378,1.377 l -13.981,0 -0.227,1.377 15.586,0 c 0.685,0 1.266,0.504 1.363,1.182 L 8.248,8.066 C 8.305,8.463 8.187,8.864 7.926,9.164"
         id="path884"
         style="fill:#ffffff;fill-opacity:1;fill-rule:nonzero;stroke:none" />
    </g>
    <g
       transform="matrix(1.25,0,0,-1.25,535.05096,434.11805)"
       id="g886">
      <path
         d="m 0,0 c 1.141,0 2.066,-0.925 2.066,-2.065 0,-1.141 -0.925,-2.066 -2.066,-2.066 -1.141,0 -2.065,0.925 -2.065,2.066 C -2.065,-0.925 -1.141,0 0,0"
         id="path888"
         style="fill:#ffffff;fill-opacity:1;fill-rule:nonzero;stroke:none" />
    </g>
    <g
       transform="matrix(1.25,0,0,-1.25,550.54171,434.11805)"
       id="g890">
      <path
         d="m 0,0 c 1.141,0 2.066,-0.925 2.066,-2.065 0,-1.141 -0.925,-2.066 -2.066,-2.066 -1.141,0 -2.065,0.925 -2.065,2.066 C -2.065,-0.925 -1.141,0 0,0"
         id="path892"
         style="fill:#ffffff;fill-opacity:1;fill-rule:nonzero;stroke:none" />
    </g>
  </g>
</svg>
