<?xml version="1.0" encoding="UTF-8" standalone="no"?>
<!-- Created with Inkscape (http://www.inkscape.org/) -->

<svg
   xmlns:dc="http://purl.org/dc/elements/1.1/"
   xmlns:cc="http://creativecommons.org/ns#"
   xmlns:rdf="http://www.w3.org/1999/02/22-rdf-syntax-ns#"
   xmlns:svg="http://www.w3.org/2000/svg"
   xmlns="http://www.w3.org/2000/svg"
   version="1.1"
   width="66.332497"
   height="58.459999"
   id="svg4118"
   viewBox="0 0 66.332497 58.459999">
  <defs
     id="defs4120" />
  <metadata
     id="metadata4123">
    <rdf:RDF>
      <cc:Work
         rdf:about="">
        <dc:format>image/svg+xml</dc:format>
        <dc:type
           rdf:resource="http://purl.org/dc/dcmitype/StillImage" />
        <dc:title></dc:title>
      </cc:Work>
    </rdf:RDF>
  </metadata>
  <g
     transform="translate(-544.64101,-345.06729)"
     id="layer1">
    <g
       transform="matrix(1.25,0,0,-1.25,589.15226,376.96854)"
       id="g480">
      <path
         d="m 0,0 c -3.895,-1.571 -8.772,0.444 -8.772,0.444 2.993,-0.759 5.731,1.381 7.729,2.992 C 1.724,5.667 4.969,4.765 4.969,4.765 4.765,4.164 3.901,1.572 0,0 m -4.669,-3.421 c -2.296,0.643 -3.791,3.237 -3.791,3.237 1.09,-1.379 3.251,-1.136 4.514,-1.334 C -1.953,-1.823 -0.788,-3 -0.788,-3 -1.084,-3.199 -2.37,-4.065 -4.669,-3.421 m -4.216,-1.771 c -1.051,0 0,4.591 0,4.591 0,0 1.047,-4.591 0,-4.591 m -4.222,1.771 c -2.297,-0.644 -3.582,0.222 -3.881,0.421 0,0 1.167,1.177 3.159,1.482 1.265,0.198 3.427,-0.045 4.513,1.334 0,0 -1.491,-2.594 -3.791,-3.237 m -10.014,8.186 c 0,0 3.242,0.902 6.009,-1.329 1.996,-1.611 4.735,-3.751 7.729,-2.992 0,0 -4.875,-2.015 -8.776,-0.444 -3.899,1.572 -4.761,4.164 -4.962,4.765 m 5.437,9.973 c 0,0 3.428,-1.603 4.156,-5.534 0.518,-2.836 1.288,-6.665 4.399,-8.211 0,0 -5.64,1.851 -7.81,6.047 -2.173,4.197 -1.011,7.039 -0.745,7.698 m 8.799,6.605 C -5.665,17.068 -5.272,14.21 -7.146,8.88 -8.347,5.474 -8.885,0.989 -8.885,0.989 c 0,0 -0.543,4.485 -1.743,7.891 -0.339,0.96 -1.538,8.112 1.743,12.463 m 8.793,-6.605 C 0.178,14.079 1.336,11.237 -0.839,7.04 -3.007,2.844 -8.647,0.993 -8.647,0.993 c 3.11,1.546 3.881,5.375 4.405,8.211 0.722,3.931 4.15,5.534 4.15,5.534 m -8.984,10.783 c -14.629,0 -26.533,-8.462 -26.533,-18.868 0,-7.076 5.456,-13.459 14.264,-16.726 0.184,-1.758 -0.48,-5.139 -5.843,-10.014 -0.227,-0.21 -0.283,-0.545 -0.135,-0.815 0.118,-0.217 0.345,-0.345 0.585,-0.345 0.059,0 0.115,0.006 0.174,0.026 0.502,0.135 12.351,3.402 19.502,9.078 13.765,0.74 24.519,8.969 24.519,18.8 0,10.402 -11.901,18.864 -26.533,18.864"
         id="path482"
         style="fill:#ffffff;fill-opacity:1;fill-rule:nonzero;stroke:none" />
    </g>
  </g>
</svg>
