<?xml version="1.0" encoding="UTF-8" standalone="no"?>
<!-- Created with Inkscape (http://www.inkscape.org/) -->

<svg
   xmlns:dc="http://purl.org/dc/elements/1.1/"
   xmlns:cc="http://creativecommons.org/ns#"
   xmlns:rdf="http://www.w3.org/1999/02/22-rdf-syntax-ns#"
   xmlns:svg="http://www.w3.org/2000/svg"
   xmlns="http://www.w3.org/2000/svg"
   version="1.1"
   width="66.66597"
   height="56.274277"
   id="svg4059">
  <defs
     id="defs4061" />
  <metadata
     id="metadata4064">
    <rdf:RDF>
      <cc:Work
         rdf:about="">
        <dc:format>image/svg+xml</dc:format>
        <dc:type
           rdf:resource="http://purl.org/dc/dcmitype/StillImage" />
        <dc:title></dc:title>
      </cc:Work>
    </rdf:RDF>
  </metadata>
  <g
     transform="translate(-169.52415,-284.22504)"
     id="layer1">
    <g
       transform="matrix(1.25,0,0,-1.25,172.46364,302.22506)"
       id="g804">
      <path
         d="m 0,0 c -1.146,-0.335 -2.02,-1.267 -2.276,-2.435 -0.256,-1.167 0.149,-2.38 1.052,-3.16 l 9.892,-8.549 39.888,26.299 -35.822,-29.821 13.524,-11.688 c 0.858,-0.743 2.025,-1.042 3.142,-0.803 1.115,0.24 2.051,0.993 2.53,2.023 l 18.945,40.877 c 0.191,0.417 0.12,0.904 -0.178,1.252 -0.295,0.345 -0.765,0.487 -1.208,0.358 L 0,0 z"
         id="path806"
         style="fill:#ffffff;fill-opacity:1;fill-rule:nonzero;stroke:none" />
    </g>
    <g
       transform="matrix(1.25,0,0,-1.25,179.90388,322.83056)"
       id="g808">
      <path
         d="m 0,0 0.048,-0.495 1.106,-11.352 c 0.084,-0.843 0.58,-1.586 1.324,-1.987 0.746,-0.399 1.642,-0.402 2.387,-0.005 3.002,1.598 6.926,3.723 6.838,3.874 L 0,0 z"
         id="path810"
         style="fill:#ffffff;fill-opacity:1;fill-rule:nonzero;stroke:none" />
    </g>
  </g>
</svg>
