<?xml version="1.0" encoding="UTF-8" standalone="no"?>
<!-- Created with Inkscape (http://www.inkscape.org/) -->

<svg
   xmlns:dc="http://purl.org/dc/elements/1.1/"
   xmlns:cc="http://creativecommons.org/ns#"
   xmlns:rdf="http://www.w3.org/1999/02/22-rdf-syntax-ns#"
   xmlns:svg="http://www.w3.org/2000/svg"
   xmlns="http://www.w3.org/2000/svg"
   version="1.1"
   width="46.161251"
   height="47.711094"
   id="svg3779"
   viewBox="0 0 46.161251 47.711094">
  <defs
     id="defs3781" />
  <metadata
     id="metadata3784">
    <rdf:RDF>
      <cc:Work
         rdf:about="">
        <dc:format>image/svg+xml</dc:format>
        <dc:type
           rdf:resource="http://purl.org/dc/dcmitype/StillImage" />
        <dc:title></dc:title>
      </cc:Work>
    </rdf:RDF>
  </metadata>
  <g
     transform="translate(-491.20509,-414.22092)"
     id="layer1">
    <g
       transform="matrix(1.25,0,0,-1.25,531.38009,432.08967)"
       id="g732">
      <path
         d="m 0,0 -11.563,-0.002 c -0.006,0 -0.012,0.002 -0.018,0.002 l -3.825,0 6.122,6.12 c 1.866,1.869 1.866,4.903 -0.005,6.774 -1.867,1.869 -4.903,1.867 -6.77,0 L -29.438,-0.485 c 0,0 10e-4,-0.011 0,-0.014 0,0 -2.703,-2.399 -2.702,-4.29 -10e-4,-1.896 2.094,-3.496 2.706,-4.297 0.002,-0.003 0,-0.013 0,-0.013 l 13.375,-13.374 c 1.867,-1.867 4.903,-1.869 6.775,10e-4 1.866,1.869 1.866,4.904 0,6.773 l -6.118,6.117 15.401,0.002 C 2.64,-9.581 4.787,-7.436 4.789,-4.789 4.787,-2.148 2.641,-0.002 0,0"
         id="path734"
         style="fill:#ffffff;fill-opacity:1;fill-rule:nonzero;stroke:none" />
    </g>
  </g>
</svg>
