<?xml version="1.0" encoding="UTF-8" standalone="no"?>
<!-- Created with Inkscape (http://www.inkscape.org/) -->

<svg
   xmlns:dc="http://purl.org/dc/elements/1.1/"
   xmlns:cc="http://creativecommons.org/ns#"
   xmlns:rdf="http://www.w3.org/1999/02/22-rdf-syntax-ns#"
   xmlns:svg="http://www.w3.org/2000/svg"
   xmlns="http://www.w3.org/2000/svg"
   version="1.1"
   width="54.779999"
   height="54.77375"
   id="svg3995"
   viewBox="0 0 54.779999 54.77375">
  <defs
     id="defs3997" />
  <metadata
     id="metadata4000">
    <rdf:RDF>
      <cc:Work
         rdf:about="">
        <dc:format>image/svg+xml</dc:format>
        <dc:type
           rdf:resource="http://purl.org/dc/dcmitype/StillImage" />
        <dc:title></dc:title>
      </cc:Work>
    </rdf:RDF>
  </metadata>
  <g
     transform="translate(-361.18142,-459.26102)"
     id="layer1">
    <g
       transform="matrix(1.25,0,0,-1.25,397.69255,474.50027)"
       id="g56">
      <path
         d="m 0,0 c -0.439,0 -0.879,0.01 -1.318,-0.001 -0.752,-0.02 -1.141,-0.382 -1.157,-1.113 -0.017,-0.9 -0.019,-1.801 0.002,-2.701 0.018,-0.661 0.41,-1.061 1.065,-1.078 0.922,-0.023 1.844,-0.022 2.763,0 0.633,0.015 1.034,0.402 1.049,1.021 0.028,0.942 0.026,1.885 0.002,2.827 C 2.393,-0.406 2.018,-0.039 1.381,-0.006 0.922,0.018 0.461,-0.001 0,0 m -7.24,-4.878 c -2.719,0.026 -4.871,-2.068 -4.897,-4.763 -0.027,-2.724 2.057,-4.88 4.748,-4.918 2.741,-0.036 4.918,2.082 4.934,4.8 0.014,2.718 -2.08,4.856 -4.785,4.881 m -9.746,-2.915 c -0.012,-0.235 -0.028,-0.401 -0.028,-0.567 0,-3.255 -0.002,-6.509 0,-9.763 0.002,-0.974 0.342,-1.304 1.344,-1.304 5.584,-0.002 11.17,-0.002 16.754,0 0.992,0 1.328,0.336 1.33,1.318 0.002,2.877 0.002,5.753 0.002,8.629 l 0,1.664 -2.146,0 c 1.117,-5.877 -3.301,-9.262 -6.573,-9.58 -2.064,-0.202 -3.984,0.199 -5.638,1.491 -2.659,2.073 -3.5,4.84 -2.897,8.112 l -2.148,0 z m 20.025,-14.53 -20.67,0 c -1.101,0.412 -1.861,1.166 -2.269,2.269 l 0,20.671 c 0.406,1.106 1.16,1.863 2.269,2.269 l 20.67,0 C 4.143,2.477 4.896,1.719 5.307,0.617 l 0,-20.671 c -0.414,-1.095 -1.17,-1.855 -2.268,-2.269 M -7.2949007,12.191398 c -12.1040003,0 -21.9140003,-9.808 -21.9140003,-21.909 0,-12.102 9.81,-21.91 21.9140003,-21.91 12.102,0 21.9099997,9.808 21.9099997,21.91 0,12.101 -9.8079997,21.909 -21.9099997,21.909"
         id="path58"
         style="opacity:0.8;fill:#503b69;fill-opacity:1;fill-rule:nonzero;stroke:none" />
    </g>
  </g>
</svg>
