<?xml version="1.0" encoding="UTF-8" standalone="no"?>
<!-- Created with Inkscape (http://www.inkscape.org/) -->

<svg
   xmlns:dc="http://purl.org/dc/elements/1.1/"
   xmlns:cc="http://creativecommons.org/ns#"
   xmlns:rdf="http://www.w3.org/1999/02/22-rdf-syntax-ns#"
   xmlns:svg="http://www.w3.org/2000/svg"
   xmlns="http://www.w3.org/2000/svg"
   version="1.1"
   width="395.47232"
   height="383.87939"
   id="svg6699"
   viewBox="0 0 395.47232 383.87939">
  <defs
     id="defs6701">
    <clipPath
       id="clipPath780">
      <path
         d="m 0,5556.226 1400,0 L 1400,0 0,0 0,5556.226 z"
         id="path782" />
    </clipPath>
  </defs>
  <metadata
     id="metadata6704">
    <rdf:RDF>
      <cc:Work
         rdf:about="">
        <dc:format>image/svg+xml</dc:format>
        <dc:type
           rdf:resource="http://purl.org/dc/dcmitype/StillImage" />
        <dc:title></dc:title>
      </cc:Work>
    </rdf:RDF>
  </metadata>
  <g
     transform="translate(-151.83273,-256.65721)"
     id="layer1">
    <g
       transform="matrix(1.25,0,0,-1.25,386.81307,587.24535)"
       id="g786">
      <path
         d="m 0,0 c -63.519,-16.721 -128.565,21.217 -145.284,84.734 -16.72,63.52 21.217,128.567 84.736,145.287 C 2.97,246.74 68.017,208.803 84.736,145.283 101.456,81.766 63.519,16.719 0,0 M -68.311,259.512 C -148.116,238.504 -195.781,156.777 -174.774,76.973 -153.768,-2.828 -72.042,-50.5 7.763,-29.492 87.566,-8.486 135.231,73.244 114.226,153.045 93.219,232.852 11.493,280.518 -68.311,259.512"
         id="path788"
         style="fill:#517846;fill-opacity:1;fill-rule:nonzero;stroke:none" class="line_2" />
    </g>
    <g
       transform="matrix(1.25,0,0,-1.25,306.68069,282.82147)"
       id="g790">
      <path
         d="m 0,0 c -70.987,-18.686 -113.384,-91.377 -94.699,-162.363 18.685,-70.985 91.378,-113.384 162.365,-94.698 70.984,18.686 113.381,91.379 94.696,162.364 C 143.677,-23.713 70.984,18.686 0,0"
         id="path792"
         style="fill:#abd04b;fill-opacity:1;fill-rule:nonzero;stroke:none" class="line_3" />
    </g>
    <g
       transform="matrix(1.25,0,0,-1.25,308.3072,289.00072)"
       id="g794">
      <path
         d="m 0,0 c -68.258,-17.967 -109.021,-87.861 -91.055,-156.117 17.966,-68.252 87.861,-109.024 156.118,-91.057 68.252,17.967 109.02,87.865 91.053,156.119 C 138.149,-22.799 68.252,17.967 0,0"
         id="path796"
         style="fill:#ffffff;fill-opacity:1;fill-rule:nonzero;stroke:none" class="line_4" />
    </g>
    <g
       transform="matrix(1.25,0,0,-1.25,523.14307,348.3781)"
       id="g798">
      <path
         d="m 0,0 c -5.963,10.902 -13.233,21.084 -21.6,30.271 -8.246,9.059 -17.551,17.151 -27.656,24.071 -2.669,1.83 -5.394,3.576 -8.169,5.24 -1.361,0.814 -2.735,1.609 -4.119,2.385 -0.891,0.498 -1.527,0.859 -2.151,0.902 l 0.177,0.184 c -0.028,0.015 -0.054,0.029 -0.083,0.045 -0.076,-0.078 -0.152,-0.155 -0.229,-0.235 -0.558,-0.006 -1.122,-0.269 -1.862,-0.959 -0.3,-0.277 -1.298,-1.4 -0.541,-1.488 -0.076,-0.078 -0.149,-0.154 -0.225,-0.228 36.652,-19.467 65.402,-53.514 76.765,-96.68 21.619,-82.117 -27.716,-166.543 -109.969,-188.194 -82.254,-21.652 -166.759,27.543 -188.374,109.661 -2.132,8.099 -3.609,16.369 -4.399,24.705 -1.167,12.345 -0.821,24.826 1.029,37.091 1.812,12.026 5.067,23.827 9.651,35.092 2.278,5.6 4.884,11.065 7.799,16.364 1.457,2.644 2.993,5.248 4.6,7.804 0.804,1.28 1.614,2.559 2.468,3.801 0.838,1.223 1.113,1.816 -0.034,2.998 -1.949,2.016 -3.123,-0.623 -4.134,-2.166 -1.29,-1.969 -2.536,-3.963 -3.739,-5.99 -2.404,-4.045 -4.629,-8.201 -6.665,-12.444 -5.243,-10.917 -9.236,-22.433 -11.861,-34.257 -2.663,-11.996 -3.913,-24.303 -3.705,-36.592 0.214,-12.619 1.97,-25.203 5.183,-37.408 22.168,-84.217 108.829,-134.667 193.183,-112.462 84.352,22.204 134.947,108.782 112.776,192.999 C 10.865,-23.148 6.127,-11.199 0,0"
         id="path800"
         style="fill:#abd04b;fill-opacity:1;fill-rule:nonzero;stroke:none" class="line_1" />
    </g>
  </g>
</svg>
