<?xml version="1.0" encoding="UTF-8" standalone="no"?>
<!-- Created with Inkscape (http://www.inkscape.org/) -->

<svg
   xmlns:dc="http://purl.org/dc/elements/1.1/"
   xmlns:cc="http://creativecommons.org/ns#"
   xmlns:rdf="http://www.w3.org/1999/02/22-rdf-syntax-ns#"
   xmlns:svg="http://www.w3.org/2000/svg"
   xmlns="http://www.w3.org/2000/svg"
   version="1.1"
   width="73.037498"
   height="73.032249"
   id="svgtwitter"
   viewBox="0 0 73.037498 73.032249">
  <defs
     id="defs4889">
    <clipPath
       id="clipPath590">
      <path
         d="m 0,5556.226 1400,0 L 1400,0 0,0 0,5556.226 z"
         id="path592" />
    </clipPath>
    <clipPath
       id="clipPath598">
      <path
         d="m 1006.3,391.392 58.44,0 0,-58.426 -58.44,0 0,58.426 z"
         id="path600" />
    </clipPath>
    <clipPath
       id="clipPath614">
      <path
         d="m 1103.62,392.058 58.43,0 0,-58.425 -58.43,0 0,58.425 z"
         id="path616" />
    </clipPath>
  </defs>
  <metadata
     id="metadata4892">
    <rdf:RDF>
      <cc:Work
         rdf:about="">
        <dc:format>image/svg+xml</dc:format>
        <dc:type
           rdf:resource="http://purl.org/dc/dcmitype/StillImage" />
        <dc:title></dc:title>
      </cc:Work>
    </rdf:RDF>
  </metadata>
  <g
     transform="translate(-205.51783,-181.97666)"
     id="layer1">
    <g
       transform="matrix(1.25,0,0,-1.25,-1052.3633,671.21641)"
       id="g594">
      <g
         id="g596" />
      <g
         id="g602">
        <g
           clip-path="url(#clipPath598)"
           id="g604"
           style="opacity:0.80000299">
          <g
             transform="translate(1054.9209,372.1758)"
             id="g606">
            <path
               d="m 0,0 c -0.975,-1.462 -2.183,-2.724 -3.588,-3.757 0.006,-0.279 0.013,-0.565 0.013,-0.851 0,-10.261 -7.808,-20.871 -20.871,-20.871 -3.993,0 -7.883,1.136 -11.244,3.294 -0.071,0.043 -0.099,0.128 -0.075,0.211 0.029,0.075 0.109,0.123 0.188,0.114 0.568,-0.065 1.14,-0.1 1.715,-0.1 3.107,0 6.049,0.961 8.537,2.783 -2.982,0.252 -5.545,2.27 -6.467,5.148 -0.021,0.062 -0.004,0.126 0.033,0.175 0.042,0.044 0.11,0.068 0.171,0.055 0.82,-0.159 1.668,-0.165 2.472,-0.032 -3.071,0.953 -5.233,3.834 -5.233,7.117 l 0,0.096 c 0,0.058 0.036,0.119 0.086,0.147 0.052,0.033 0.121,0.034 0.172,0 0.804,-0.444 1.694,-0.727 2.607,-0.841 -1.768,1.411 -2.807,3.548 -2.807,5.831 0,1.32 0.345,2.615 1.004,3.747 0.035,0.05 0.086,0.085 0.143,0.092 0.062,10e-4 0.116,-0.021 0.155,-0.07 3.616,-4.434 8.936,-7.17 14.631,-7.521 -0.094,0.479 -0.143,0.971 -0.143,1.465 0,4.113 3.339,7.453 7.451,7.453 2.019,0 3.969,-0.829 5.367,-2.28 1.58,0.32 3.08,0.901 4.471,1.724 0.06,0.039 0.143,0.03 0.203,-0.012 0.056,-0.046 0.078,-0.124 0.056,-0.194 -0.471,-1.473 -1.39,-2.755 -2.622,-3.681 1.164,0.2 2.287,0.543 3.36,1.018 0.072,0.034 0.156,0.012 0.207,-0.047 C 0.044,0.149 0.049,0.065 0,0 m -19.398,19.216 c -16.138,0 -29.218,-13.078 -29.218,-29.213 0,-16.135 13.08,-29.213 29.218,-29.213 16.135,0 29.212,13.078 29.212,29.213 0,16.135 -13.077,29.213 -29.212,29.213"
               id="path608"
               style="fill:#594870;fill-opacity:1;fill-rule:nonzero;stroke:none" />
          </g>
        </g>
      </g>
    </g>
  </g>
</svg>
