<?xml version="1.0" encoding="UTF-8" standalone="no"?>
<!-- Created with Inkscape (http://www.inkscape.org/) -->

<svg
   xmlns:dc="http://purl.org/dc/elements/1.1/"
   xmlns:cc="http://creativecommons.org/ns#"
   xmlns:rdf="http://www.w3.org/1999/02/22-rdf-syntax-ns#"
   xmlns:svg="http://www.w3.org/2000/svg"
   xmlns="http://www.w3.org/2000/svg"
   version="1.1"
   width="37.5"
   height="37.5"
   id="svg3043"
   viewBox="0 0 37.5 37.5">
  <defs
     id="defs3045">
    <clipPath
       id="clipPath32">
      <path
         d="M 0,626 1166,626 1166,0 0,0 0,626 z"
         id="path34" />
    </clipPath>
  </defs>
  <metadata
     id="metadata3048">
    <rdf:RDF>
      <cc:Work
         rdf:about="">
        <dc:format>image/svg+xml</dc:format>
        <dc:type
           rdf:resource="http://purl.org/dc/dcmitype/StillImage" />
        <dc:title></dc:title>
      </cc:Work>
    </rdf:RDF>
  </metadata>
  <g
     transform="translate(-197.30873,-338.7012)"
     id="layer1">
    <g
       transform="matrix(1.25,0,0,-1.25,229.32248,363.3912)"
       id="g36">
      <path
         d="m 0,0 c -1.165,-2.597 -3.255,-4.688 -5.852,-5.855 -1.452,-0.653 -3.062,-1.017 -4.759,-1.017 -1.695,0 -3.306,0.364 -4.759,1.017 -2.596,1.167 -4.687,3.257 -5.851,5.855 -0.651,1.45 -1.012,3.059 -1.012,4.752 0,1.695 0.361,3.304 1.014,4.756 1.164,2.593 3.252,4.683 5.844,5.849 1.455,0.654 3.067,1.019 4.764,1.019 0.591,0 1.173,-0.046 1.739,-0.131 -2.979,-0.089 -5.742,-0.958 -8.132,-2.899 -4.21,-3.421 -4.029,-8.915 0.377,-12.081 0.023,-0.016 0.046,-0.032 0.068,-0.048 -0.012,-0.117 -0.11,-0.275 -0.281,-0.59 -0.53,-0.971 -1.068,-1.938 -1.602,-2.906 0.03,-0.036 0.062,-0.073 0.092,-0.109 0.213,0.08 0.43,0.15 0.637,0.243 1.211,0.54 2.425,1.078 3.628,1.638 0.218,0.101 0.421,0.142 0.632,0.132 1.569,-0.536 3.299,-0.781 5.271,-0.791 2.833,0.036 5.88,0.905 8.443,3.123 0.183,0.158 0.356,0.32 0.52,0.486 C 0.61,1.592 0.346,0.773 0,0 m -8.066,13.14 c 1.869,-0.055 3.603,-0.577 5.08,-1.778 2.52,-2.046 2.577,-5.288 0.124,-7.412 -1.649,-1.427 -3.608,-1.986 -5.431,-2.009 -2.183,0.011 -3.906,0.468 -5.432,1.564 -2.834,2.037 -2.95,5.57 -0.242,7.77 1.716,1.394 3.729,1.929 5.901,1.865 M 3.081,10.887 c -1.504,3.35 -4.2,6.048 -7.55,7.553 -1.873,0.842 -3.953,1.312 -6.142,1.312 -2.191,0 -4.27,-0.47 -6.147,-1.314 -3.346,-1.505 -6.04,-4.201 -7.543,-7.548 -0.842,-1.873 -1.31,-3.951 -1.31,-6.138 0,-2.185 0.468,-4.261 1.308,-6.133 1.503,-3.351 4.201,-6.05 7.551,-7.556 1.874,-0.842 3.953,-1.311 6.141,-1.311 2.189,0 4.269,0.47 6.142,1.311 3.351,1.506 6.048,4.205 7.552,7.557 0.839,1.872 1.306,3.947 1.306,6.132 0,2.185 -0.467,4.262 -1.308,6.135"
         id="path38"
         style="fill:#afc32e;fill-opacity:1;fill-rule:nonzero;stroke:none" />
    </g>
  </g>
</svg>
