<?xml version="1.0" encoding="UTF-8" standalone="no"?>
<!-- Created with Inkscape (http://www.inkscape.org/) -->

<svg
   xmlns:dc="http://purl.org/dc/elements/1.1/"
   xmlns:cc="http://creativecommons.org/ns#"
   xmlns:rdf="http://www.w3.org/1999/02/22-rdf-syntax-ns#"
   xmlns:svg="http://www.w3.org/2000/svg"
   xmlns="http://www.w3.org/2000/svg"
   version="1.1"
   width="37.5"
   height="37.5"
   id="svg3043"
   viewBox="0 0 37.5 37.5">
  <defs
     id="defs3045">
    <clipPath
       id="clipPath32">
      <path
         d="M 0,626 1166,626 1166,0 0,0 0,626 z"
         id="path34" />
    </clipPath>
  </defs>
  <metadata
     id="metadata3048">
    <rdf:RDF>
      <cc:Work
         rdf:about="">
        <dc:format>image/svg+xml</dc:format>
        <dc:type
           rdf:resource="http://purl.org/dc/dcmitype/StillImage" />
        <dc:title></dc:title>
      </cc:Work>
    </rdf:RDF>
  </metadata>
  <g
     transform="translate(-252.67923,-339.95182)"
     id="layer1">
    <g
       transform="matrix(1.25,0,0,-1.25,284.69173,364.64057)"
       id="g40">
      <path
         d="m 0,0 c -1.165,-2.597 -3.255,-4.689 -5.851,-5.855 -0.694,-0.312 -1.428,-0.554 -2.188,-0.726 l 0,9.144 3.573,0 0.003,3.609 -3.576,0 0,2.305 c 0,1.045 0.292,1.757 1.789,1.757 l 1.911,0 0,3.369 -2.784,0.003 c -2.756,0 -4.642,-1.683 -4.642,-4.772 l 0,-2.662 -3.117,0 0,-3.609 3.117,0 0,-9.373 c -1.273,0.126 -2.486,0.452 -3.604,0.954 -2.597,1.167 -4.686,3.258 -5.851,5.855 -0.652,1.451 -1.014,3.06 -1.014,4.752 0,1.695 0.363,3.305 1.015,4.757 1.165,2.594 3.252,4.683 5.845,5.849 1.454,0.655 3.067,1.018 4.764,1.018 1.696,0 3.307,-0.363 4.759,-1.016 C -3.255,14.192 -1.166,12.102 0,9.505 0.651,8.054 1.013,6.445 1.013,4.751 1.013,3.059 0.651,1.45 0,0 m 3.081,10.887 c -1.503,3.35 -4.199,6.048 -7.548,7.553 -1.876,0.843 -3.955,1.311 -6.143,1.311 -2.191,0 -4.272,-0.469 -6.147,-1.313 -3.347,-1.505 -6.041,-4.201 -7.543,-7.548 -0.842,-1.874 -1.31,-3.952 -1.31,-6.139 0,-2.185 0.468,-4.26 1.307,-6.132 1.504,-3.352 4.201,-6.051 7.551,-7.556 1.876,-0.842 3.953,-1.312 6.142,-1.312 2.188,0 4.267,0.47 6.143,1.312 3.349,1.506 6.047,4.205 7.549,7.556 0.84,1.872 1.308,3.947 1.308,6.132 0,2.186 -0.468,4.263 -1.309,6.136"
         id="path42"
         style="fill:#afc32e;fill-opacity:1;fill-rule:nonzero;stroke:none" />
    </g>
    <g
       transform="matrix(1.25,0,0,-1.25,340.06098,364.64057)"
       id="g44" />
  </g>
</svg>
