<?xml version="1.0" encoding="UTF-8" standalone="no"?>
<!-- Created with Inkscape (http://www.inkscape.org/) -->

<svg
   xmlns:dc="http://purl.org/dc/elements/1.1/"
   xmlns:cc="http://creativecommons.org/ns#"
   xmlns:rdf="http://www.w3.org/1999/02/22-rdf-syntax-ns#"
   xmlns:svg="http://www.w3.org/2000/svg"
   xmlns="http://www.w3.org/2000/svg"
   version="1.1"
   width="37.5"
   height="37.5"
   id="svg3043"
   viewBox="0 0 37.5 37.5">
  <defs
     id="defs3045">
    <clipPath
       id="clipPath32">
      <path
         d="M 0,626 1166,626 1166,0 0,0 0,626 z"
         id="path34" />
    </clipPath>
  </defs>
  <metadata
     id="metadata3048">
    <rdf:RDF>
      <cc:Work
         rdf:about="">
        <dc:format>image/svg+xml</dc:format>
        <dc:type
           rdf:resource="http://purl.org/dc/dcmitype/StillImage" />
        <dc:title></dc:title>
      </cc:Work>
    </rdf:RDF>
  </metadata>
  <g
     transform="translate(-262.67193,-317.80834)"
     id="layer1">
    <g
       transform="matrix(1.25,0,0,-1.25,294.68443,342.49709)"
       id="g44">
      <path
         d="m 0,0 c -1.165,-2.597 -3.254,-4.689 -5.851,-5.855 -1.453,-0.654 -3.063,-1.017 -4.759,-1.017 -1.696,0 -3.307,0.363 -4.76,1.016 -0.969,0.436 -1.867,1.001 -2.673,1.672 l 10.261,0 c 1.899,0 3.443,1.544 3.443,3.444 l 0,7.294 0,3.636 c 0,1.899 -1.544,3.443 -3.443,3.443 l -10.322,0 c 0.821,0.693 1.738,1.278 2.73,1.724 1.455,0.655 3.066,1.018 4.764,1.018 1.696,0 3.306,-0.363 4.759,-1.016 2.595,-1.167 4.685,-3.257 5.85,-5.854 C 0.65,8.054 1.013,6.445 1.013,4.751 1.013,3.059 0.65,1.45 0,0 m -9.329,11.894 2.69,0.009 0.402,10e-4 0,-0.4 0,-2.691 -3.081,-0.01 -0.011,3.091 z m -7.126,-7.007 c 10e-4,0.699 0.227,1.345 0.607,1.871 0.585,0.809 1.532,1.338 2.603,1.338 1.071,0 2.02,-0.53 2.602,-1.339 0.379,-0.527 0.607,-1.172 0.607,-1.87 0,-1.771 -1.442,-3.21 -3.21,-3.21 -1.77,0 -3.211,1.44 -3.209,3.21 m 3.209,-4.988 c 2.75,0 4.987,2.238 4.987,4.988 0,0.661 -0.133,1.294 -0.369,1.87 l 2.723,0 0,-7.465 c 0,-0.965 -0.784,-1.747 -1.748,-1.747 l -11.188,0 c -0.584,0 -1.098,0.29 -1.416,0.73 -0.03,0.045 -0.056,0.093 -0.086,0.138 -0.152,0.258 -0.245,0.557 -0.245,0.879 l 0,7.465 2.722,0 c -0.235,-0.576 -0.367,-1.209 -0.367,-1.87 0,-2.75 2.237,-4.988 4.987,-4.988 M 3.081,10.887 c -1.503,3.35 -4.2,6.048 -7.549,7.553 -1.874,0.843 -3.953,1.311 -6.142,1.311 -2.191,0 -4.271,-0.469 -6.148,-1.313 -3.345,-1.505 -6.04,-4.201 -7.543,-7.548 -0.841,-1.874 -1.309,-3.952 -1.309,-6.139 0,-2.185 0.467,-4.26 1.307,-6.132 1.503,-3.352 4.201,-6.051 7.551,-7.556 1.875,-0.842 3.953,-1.312 6.142,-1.312 2.189,0 4.268,0.47 6.142,1.312 3.35,1.506 6.047,4.205 7.55,7.556 0.84,1.872 1.308,3.947 1.308,6.132 0,2.186 -0.468,4.263 -1.309,6.136"
         id="path46"
         style="fill:#afc32e;fill-opacity:1;fill-rule:nonzero;stroke:none" />
    </g>
  </g>
</svg>
