<?xml version="1.0" encoding="UTF-8" standalone="no"?>
<!-- Created with Inkscape (http://www.inkscape.org/) -->

<svg
   xmlns:dc="http://purl.org/dc/elements/1.1/"
   xmlns:cc="http://creativecommons.org/ns#"
   xmlns:rdf="http://www.w3.org/1999/02/22-rdf-syntax-ns#"
   xmlns:svg="http://www.w3.org/2000/svg"
   xmlns="http://www.w3.org/2000/svg"
   version="1.1"
   width="35.712158"
   height="32.803623"
   id="svg4166"
   viewBox="0 0 35.712158 32.803623">
  <defs
     id="defs4168">
    <clipPath
       id="clipPath910">
      <path
         d="m 0,2038.08 1400,0 L 1400,0 0,0 0,2038.08 z"
         id="path912" />
    </clipPath>
  </defs>
  <metadata
     id="metadata4171">
    <rdf:RDF>
      <cc:Work
         rdf:about="">
        <dc:format>image/svg+xml</dc:format>
        <dc:type
           rdf:resource="http://purl.org/dc/dcmitype/StillImage" />
        <dc:title></dc:title>
      </cc:Work>
    </rdf:RDF>
  </metadata>
  <g
     transform="translate(-714.14905,-740.0228)"
     id="layer1">
    <g
       transform="matrix(1.25,0,0,-1.25,-476.89166,1827.3193)"
       id="g906">
      <g
         clip-path="url(#clipPath910)"
         id="g908">
        <g
           transform="translate(965.8906,858.3477)"
           id="g914">
          <path
             d="m 0,0 -8.475,0 c -0.339,0 -0.639,-0.225 -0.733,-0.552 l -1.627,-5.631 11.402,-1.248 0.895,4.283 C 0.905,-2.154 0.394,-1.09 0,0"
             id="path916"
             style="fill:#ffffff;fill-opacity:1;fill-rule:nonzero;stroke:none" />
        </g>
        <g
           transform="translate(976.54,849.8135)"
           id="g918">
          <path
             d="M 0,0 3.425,-0.374 2.402,3.166 C 2.265,2.964 2.128,2.767 1.993,2.578 1.302,1.604 0.61,0.729 0,0"
             id="path920"
             style="fill:#ffffff;fill-opacity:1;fill-rule:nonzero;stroke:none" />
        </g>
        <g
           transform="translate(969.1143,852.4258)"
           id="g922">
          <path
             d="m 0,0 -0.367,-1.759 1.85,-0.202 C 1.019,-1.384 0.523,-0.738 0.028,-0.041 0.02,-0.027 0.01,-0.014 0,0"
             id="path924"
             style="fill:#ffffff;fill-opacity:1;fill-rule:nonzero;stroke:none" />
        </g>
        <g
           transform="translate(952.8623,844.5703)"
           id="g926">
          <path
             d="m 0,0 c -0.066,-0.231 -0.021,-0.479 0.124,-0.671 0.145,-0.192 0.37,-0.305 0.61,-0.305 l 11.331,0 1.06,5.069 L 1.548,5.359 0,0 z"
             id="path928"
             style="fill:#ffffff;fill-opacity:1;fill-rule:nonzero;stroke:none" />
        </g>
        <g
           transform="translate(980.6523,847.0586)"
           id="g930">
          <path
             d="m 0,0 -12.376,1.354 -1.008,-4.818 13.368,0 0.002,0 c 0.421,0 0.764,0.342 0.764,0.764 0,0.091 -0.017,0.179 -0.046,0.26 L 0,0 z"
             id="path932"
             style="fill:#ffffff;fill-opacity:1;fill-rule:nonzero;stroke:none" />
        </g>
        <g
           transform="translate(973.8359,866.9902)"
           id="g934">
          <path
             d="m 0,0 c 2.548,0 4.62,-2.073 4.62,-4.621 0,-2.546 -2.072,-4.62 -4.62,-4.62 -2.547,0 -4.62,2.074 -4.62,4.62 C -4.62,-2.073 -2.548,0 0,0 m -0.315,-18.147 c 0.082,-0.087 0.196,-0.137 0.315,-0.137 0.12,0 0.233,0.05 0.315,0.137 0.697,0.74 2.071,2.272 3.449,4.211 1.735,2.443 3.802,6.025 3.802,9.217 0,4.172 -3.394,7.566 -7.566,7.566 -4.172,0 -7.565,-3.394 -7.565,-7.566 0,-3.195 2.07,-6.779 3.806,-9.223 1.377,-1.939 2.748,-3.467 3.444,-4.205"
             id="path936"
             style="fill:#ffffff;fill-opacity:1;fill-rule:nonzero;stroke:none" />
        </g>
      </g>
    </g>
  </g>
</svg>
