<?xml version="1.0" encoding="UTF-8" standalone="no"?>
<!-- Created with Inkscape (http://www.inkscape.org/) -->

<svg
   xmlns:dc="http://purl.org/dc/elements/1.1/"
   xmlns:cc="http://creativecommons.org/ns#"
   xmlns:rdf="http://www.w3.org/1999/02/22-rdf-syntax-ns#"
   xmlns:svg="http://www.w3.org/2000/svg"
   xmlns="http://www.w3.org/2000/svg"
   version="1.1"
   width="113.70875"
   height="113.71"
   id="svg3947"
   viewBox="0 0 113.70875 113.71">
  <defs
     id="defs3949" />
  <metadata
     id="metadata3952">
    <rdf:RDF>
      <cc:Work
         rdf:about="">
        <dc:format>image/svg+xml</dc:format>
        <dc:type
           rdf:resource="http://purl.org/dc/dcmitype/StillImage" />
        <dc:title></dc:title>
      </cc:Work>
    </rdf:RDF>
  </metadata>
  <g
     transform="translate(-293.14562,-475.50718)"
     id="layer1">
    <g
       transform="matrix(1.25,0,0,-1.25,374.81624,556.10038)"
       id="g780">
      <path
         d="m 0,0 c 1.086,0 2.028,0.359 2.827,1.068 l -13.693,13.695 c -0.33,-0.235 -0.649,-0.464 -0.948,-0.681 -1.025,-0.755 -1.858,-1.345 -2.496,-1.767 -0.639,-0.423 -1.489,-0.855 -2.549,-1.295 -1.062,-0.441 -2.05,-0.661 -2.968,-0.661 l -0.027,0 -0.026,0 c -0.918,0 -1.906,0.22 -2.968,0.661 -1.061,0.44 -1.91,0.872 -2.549,1.295 -0.637,0.422 -1.469,1.012 -2.495,1.767 -0.285,0.21 -0.603,0.439 -0.946,0.685 L -42.535,1.068 C -41.735,0.359 -40.794,0 -39.706,0 L 0,0 z"
         id="path782"
         style="fill:#a4c547;fill-opacity:1;fill-rule:nonzero;stroke:none" />
    </g>
    <g
       transform="matrix(1.25,0,0,-1.25,323.19387,526.86638)"
       id="g784">
      <path
         d="m 0,0 c -1.024,0.683 -1.934,1.466 -2.725,2.347 l 0,-20.837 12.071,12.071 C 6.933,-4.733 3.82,-2.596 0,0"
         id="path786"
         style="fill:#a4c547;fill-opacity:1;fill-rule:nonzero;stroke:none" />
    </g>
    <g
       transform="matrix(1.25,0,0,-1.25,376.84137,526.86638)"
       id="g788">
      <path
         d="m 0,0 c -3.676,-2.486 -6.799,-4.627 -9.37,-6.423 l 12.067,-12.067 0,20.837 C 1.922,1.484 1.023,0.702 0,0"
         id="path790"
         style="fill:#a4c547;fill-opacity:1;fill-rule:nonzero;stroke:none" />
    </g>
    <g
       transform="matrix(1.25,0,0,-1.25,374.81624,508.62408)"
       id="g792">
      <path
         d="m 0,0 -39.706,0 c -1.385,0 -2.45,-0.468 -3.197,-1.403 -0.746,-0.935 -1.118,-2.104 -1.118,-3.506 0,-1.133 0.495,-2.36 1.483,-3.682 0.988,-1.322 2.04,-2.361 3.155,-3.116 0.612,-0.431 2.456,-1.713 5.53,-3.844 1.66,-1.15 3.105,-2.153 4.345,-3.018 1.058,-0.737 1.97,-1.375 2.724,-1.905 0.085,-0.061 0.222,-0.158 0.402,-0.287 0.195,-0.139 0.44,-0.317 0.742,-0.535 0.586,-0.423 1.071,-0.765 1.457,-1.026 0.386,-0.261 0.856,-0.553 1.403,-0.876 0.55,-0.323 1.067,-0.567 1.552,-0.729 0.485,-0.162 0.935,-0.243 1.348,-0.243 l 0.027,0 0.027,0 c 0.415,0 0.864,0.081 1.348,0.243 0.486,0.162 1.002,0.405 1.551,0.729 0.549,0.323 1.017,0.615 1.405,0.876 0.386,0.261 0.872,0.603 1.457,1.026 0.302,0.218 0.547,0.396 0.742,0.535 0.181,0.129 0.316,0.226 0.404,0.287 0.586,0.408 1.501,1.044 2.73,1.897 2.237,1.554 5.53,3.841 9.892,6.87 1.314,0.917 2.41,2.023 3.292,3.318 0.88,1.294 1.322,2.652 1.322,4.073 0,1.186 -0.429,2.203 -1.283,3.048 C 2.181,-0.423 1.169,0 0,0"
         id="path794"
         style="fill:#a4c547;fill-opacity:1;fill-rule:nonzero;stroke:none" />
    </g>
    <g
       transform="matrix(1.25,0,0,-1.25,349.99937,475.50718)"
       id="g796">
      <path
         d="m 0,0 c -25.118,0 -45.483,-20.366 -45.483,-45.484 0,-25.118 20.365,-45.484 45.483,-45.484 25.118,0 45.484,20.366 45.484,45.484 C 45.484,-20.366 25.118,0 0,0 m 0,-5.686 c 21.943,0 39.799,-17.856 39.799,-39.798 0,-21.942 -17.856,-39.798 -39.799,-39.798 -21.941,0 -39.799,17.856 -39.799,39.798 0,21.942 17.858,39.798 39.799,39.798"
         id="path798"
         style="fill:#a4c547;fill-opacity:1;fill-rule:nonzero;stroke:none" />
    </g>
  </g>
</svg>
