<?xml version="1.0" encoding="UTF-8" standalone="no"?>
<!-- Created with Inkscape (http://www.inkscape.org/) -->

<svg
   xmlns:dc="http://purl.org/dc/elements/1.1/"
   xmlns:cc="http://creativecommons.org/ns#"
   xmlns:rdf="http://www.w3.org/1999/02/22-rdf-syntax-ns#"
   xmlns:svg="http://www.w3.org/2000/svg"
   xmlns="http://www.w3.org/2000/svg"
   version="1.1"
   width="120.665"
   height="172.05624"
   id="svg5684">
  <defs
     id="defs5686" />
  <metadata
     id="metadata5689">
    <rdf:RDF>
      <cc:Work
         rdf:about="">
        <dc:format>image/svg+xml</dc:format>
        <dc:type
           rdf:resource="http://purl.org/dc/dcmitype/StillImage" />
        <dc:title></dc:title>
      </cc:Work>
    </rdf:RDF>
  </metadata>
  <g
     transform="translate(-253.95318,-237.76263)"
     id="layer1">
    <g
       transform="matrix(1.25,0,0,-1.25,366.45693,279.36388)"
       id="g334">
      <path
         d="m 0,0 c -2.639,6.999 -9.007,10.876 -15.523,12.05 -0.103,0.124 -0.211,0.25 -0.327,0.38 -0.821,0.924 -1.746,1.758 -2.751,2.483 -2.264,10.581 -11.59,18.368 -22.816,18.368 -11.228,0 -20.557,-7.79 -22.82,-18.371 -1.004,-0.726 -1.934,-1.563 -2.77,-2.498 -0.093,-0.106 -0.185,-0.212 -0.273,-0.318 -8.034,-1.322 -12.919,-6.265 -15.177,-11.271 -4.716,-3.49 -7.546,-9.005 -7.546,-14.994 l 0,-46.866 c 0,-5.841 2.711,-11.256 7.239,-14.762 2.681,-6.879 8.99,-10.697 15.448,-11.858 0.103,-0.122 0.212,-0.249 0.332,-0.385 2.269,-2.552 5.167,-4.318 8.419,-5.176 0.911,-1.987 2.006,-3.515 2.952,-4.61 4.639,-5.341 10.508,-6.318 12.844,-6.492 0.419,-0.029 0.846,-0.044 1.28,-0.044 l 0.006,0 c 6.418,0 12.381,3.424 15.958,9.17 0.387,0.624 0.739,1.266 1.058,1.925 3.325,0.838 6.288,2.617 8.588,5.201 0.109,0.122 0.215,0.245 0.321,0.372 8.378,1.39 13.653,6.779 15.727,12.62 4.027,3.519 6.36,8.583 6.36,14.039 l 0,46.866 C 6.529,-8.725 4.083,-3.521 0,0"
         id="path336"
         style="fill:#ffffff;fill-opacity:1;fill-rule:nonzero;stroke:none" />
    </g>
    <g
       transform="matrix(1.25,0,0,-1.25,314.59613,401.00512)"
       id="g338">
      <path
         d="m 0,0 c -0.267,0 -0.529,0.009 -0.786,0.027 -1.116,0.083 -5.005,0.616 -8.015,4.082 -1.093,1.266 -2.43,3.37 -2.93,6.461 -0.227,-0.013 -0.451,-0.021 -0.676,-0.021 -3.083,0 -5.866,1.211 -7.819,3.408 -0.15,0.169 -0.278,0.322 -0.398,0.481 -0.313,0.419 -0.728,1.053 -1.099,1.886 -8.55,0.096 -12.625,5.219 -13.547,9.676 -3.782,2.01 -6.193,5.977 -6.193,10.276 l 0,46.866 c 0,4.346 2.454,8.339 6.299,10.328 1.106,4.338 5.197,9.129 13.441,9.226 0.371,0.832 0.786,1.466 1.102,1.886 0.114,0.154 0.252,0.321 0.392,0.481 1.095,1.224 2.468,2.158 4.016,2.733 0.288,8.733 7.479,15.746 16.285,15.746 8.798,0 15.993,-7.013 16.281,-15.746 1.548,-0.575 2.924,-1.509 4.016,-2.738 0.145,-0.164 0.277,-0.322 0.397,-0.483 0.313,-0.417 0.73,-1.047 1.096,-1.879 8.53,-0.099 12.608,-5.194 13.542,-9.641 3.443,-2.115 5.563,-5.863 5.563,-9.913 l 0,-46.866 c 0,-4.015 -2.089,-7.743 -5.482,-9.865 -0.012,-0.076 -0.028,-0.154 -0.041,-0.23 -0.855,-4.509 -4.927,-9.757 -13.582,-9.857 -0.371,-0.833 -0.789,-1.467 -1.103,-1.886 -0.121,-0.159 -0.252,-0.321 -0.394,-0.479 -1.957,-2.199 -4.735,-3.41 -7.818,-3.41 -0.243,0 -0.483,0.008 -0.731,0.024 C 11.488,8.888 10.858,7.266 9.971,5.835 7.696,2.181 3.975,0 0.006,0 L 0,0 z"
         id="path340"
         style="fill:#557d48;fill-opacity:1;fill-rule:nonzero;stroke:none" />
    </g>
    <g
       transform="matrix(1.25,0,0,-1.25,314.59613,399.56713)"
       id="g342">
      <path
         d="m 0,0 c -0.236,0 -0.469,0.008 -0.699,0.024 -1.005,0.072 -4.509,0.553 -7.232,3.685 -1.159,1.34 -2.511,3.589 -2.797,6.973 -0.563,-0.088 -1.124,-0.132 -1.679,-0.132 -2.75,0 -5.225,1.074 -6.963,3.022 -0.123,0.14 -0.232,0.273 -0.333,0.409 -0.325,0.426 -0.854,1.232 -1.244,2.348 -0.175,-0.006 -0.353,-0.008 -0.526,-0.008 -8.129,0 -11.922,4.797 -12.698,8.904 -0.027,0.141 -0.048,0.268 -0.064,0.388 -3.663,1.708 -6.08,5.439 -6.08,9.511 l 0,46.867 c 0,4.099 2.446,7.846 6.149,9.539 0.812,4.112 4.611,8.866 12.693,8.866 0.173,0 0.351,-0.003 0.526,-0.006 0.39,1.114 0.919,1.92 1.244,2.351 0.098,0.132 0.212,0.27 0.33,0.402 1.148,1.29 2.623,2.198 4.304,2.666 -0.003,0.099 -0.003,0.193 -0.003,0.292 0,8.349 6.793,15.143 15.144,15.143 8.349,0 15.139,-6.794 15.139,-15.143 0,-0.099 0,-0.197 -0.002,-0.292 1.682,-0.468 3.152,-1.376 4.301,-2.666 0.121,-0.137 0.232,-0.27 0.335,-0.408 0.322,-0.427 0.848,-1.231 1.242,-2.345 0.176,0.003 0.35,0.006 0.527,0.006 8.12,0 11.917,-4.794 12.697,-8.902 0.021,-0.108 0.038,-0.215 0.051,-0.314 3.334,-1.834 5.452,-5.371 5.452,-9.189 l 0,-46.867 c 0,-3.807 -2.095,-7.328 -5.405,-9.164 -0.01,-0.085 -0.012,-0.16 -0.024,-0.22 -0.012,-0.14 -0.036,-0.323 -0.074,-0.505 -0.777,-4.113 -4.574,-8.914 -12.697,-8.914 -0.177,0 -0.351,0.002 -0.527,0.008 -0.394,-1.116 -0.924,-1.922 -1.246,-2.348 -0.1,-0.136 -0.211,-0.276 -0.331,-0.407 -1.739,-1.95 -4.21,-3.024 -6.963,-3.024 -0.565,0 -1.129,0.044 -1.697,0.134 C 10.63,8.757 10,6.911 8.996,5.29 6.937,1.979 3.576,0 0.006,0 L 0,0 z"
         id="path344"
         style="fill:#ffffff;fill-opacity:1;fill-rule:nonzero;stroke:none" />
    </g>
    <g
       transform="matrix(1.25,0,0,-1.25,311.36913,362.15989)"
       id="g346">
      <path
         d="m 0,0 c 0,0 -1.406,-6.73 -5.822,-10.283 -2.78,-2.222 -5.15,-2.078 -6.206,-0.885 0,0 -1.463,1.938 1.046,3.51 2.506,1.572 9.574,3.063 10.816,7.464 0,0 0.065,0.301 0.166,0.194"
         id="path348"
         style="fill:#557d48;fill-opacity:1;fill-rule:nonzero;stroke:none" />
    </g>
    <g
       transform="matrix(1.25,0,0,-1.25,308.47063,359.69287)"
       id="g350">
      <path
         d="m 0,0 c 0,0 -6.597,-7.128 -14.532,-8.206 -4.976,-0.666 -7.741,1.235 -8.161,3.455 0,0 -0.36,3.408 3.82,3.486 4.182,0.073 13.824,-3.273 18.533,1.15 0,0 0.293,0.317 0.34,0.115"
         id="path352"
         style="fill:#557d48;fill-opacity:1;fill-rule:nonzero;stroke:none" />
    </g>
    <g
       transform="matrix(1.25,0,0,-1.25,317.05823,362.15989)"
       id="g354">
      <path
         d="m 0,0 c 0,0 1.402,-6.73 5.821,-10.283 2.774,-2.222 5.144,-2.078 6.205,-0.885 0,0 1.455,1.938 -1.052,3.51 -2.505,1.572 -9.567,3.063 -10.817,7.464 0,0 -0.059,0.301 -0.157,0.194"
         id="path356"
         style="fill:#557d48;fill-opacity:1;fill-rule:nonzero;stroke:none" />
    </g>
    <g
       transform="matrix(1.25,0,0,-1.25,319.94943,359.69287)"
       id="g358">
      <path
         d="m 0,0 c 0,0 6.601,-7.128 14.538,-8.206 4.973,-0.666 7.742,1.235 8.158,3.455 0,0 0.356,3.408 -3.821,3.486 -4.183,0.073 -13.822,-3.273 -18.537,1.15 0,0 -0.292,0.317 -0.338,0.115"
         id="path360"
         style="fill:#557d48;fill-opacity:1;fill-rule:nonzero;stroke:none" />
    </g>
    <g
       transform="matrix(1.25,0,0,-1.25,319.68083,381.8615)"
       id="g362">
      <path
         d="m 0,0 c -0.492,5.799 -3.48,7.256 -3.987,15.403 0,0 -0.003,-0.018 -0.007,-0.048 -0.004,0.03 -0.008,0.048 -0.008,0.048 C -4.508,7.256 -7.497,5.799 -7.988,0 -8.496,-6.003 -4.137,-6.353 -3.994,-6.36 -3.853,-6.353 0.508,-6.003 0,0"
         id="path364"
         style="fill:#557d48;fill-opacity:1;fill-rule:nonzero;stroke:none" />
    </g>
    <g
       transform="matrix(1.25,0,0,-1.25,283.62923,293.64676)"
       id="g366">
      <path
         d="m 0,0 2.207,-8.94 0,8.94 2.308,0 0,-17.983 -2.718,0 -2.307,9.66 0,-9.66 -2.308,0 L -2.818,0 0,0 z"
         id="path368"
         style="fill:#557d48;fill-opacity:1;fill-rule:nonzero;stroke:none" />
    </g>
    <g
       transform="matrix(1.25,0,0,-1.25,294.72123,308.83839)"
       id="g370">
      <path
         d="M 0,0 2.051,0 1.028,9.838 0,0 z m 2.308,-2.311 -2.564,0 -0.359,-3.522 -2.307,0 1.896,17.986 4.106,0 1.846,-17.986 -2.257,0 -0.361,3.522 z"
         id="path372"
         style="fill:#557d48;fill-opacity:1;fill-rule:nonzero;stroke:none" />
    </g>
    <g
       transform="matrix(1.25,0,0,-1.25,303.44243,296.54038)"
       id="g374">
      <path
         d="m 0,0 -2.051,0 0,2.311 6.41,0 0,-2.311 -2.052,0 0,-15.672 -2.307,0 L 0,0 z"
         id="path376"
         style="fill:#557d48;fill-opacity:1;fill-rule:nonzero;stroke:none" />
    </g>
    <g
       transform="matrix(1.25,0,0,-1.25,313.37893,293.64676)"
       id="g378">
      <path
         d="m 0,0 0,-15.67 1.946,0 0,15.67 2.31,0 0,-16.47 c 0,-0.821 -0.689,-1.513 -1.539,-1.513 l -3.488,0 c -0.82,0 -1.535,0.692 -1.535,1.513 L -2.306,0 0,0 z"
         id="path380"
         style="fill:#557d48;fill-opacity:1;fill-rule:nonzero;stroke:none" />
    </g>
    <path
       d="m 324.15283,303.69976 2.08,0 0,-7.15875 -2.08,0 0,7.15875 z m 2.4288,2.88875 -2.4288,0 0,9.54125 -2.8887,0 0,-22.4825 5.9275,0 c 1.095,0 1.925,0.90125 1.925,1.92875 l 0,7.83625 c 0,0.8025 -0.415,1.415 -0.9925,1.5725 0.8625,0.19125 1.3462,1.09375 1.3462,1.895 l 0,9.25 -2.8887,0 0,-9.54125 z"
       id="path382"
       style="fill:#557d48;fill-opacity:1;fill-rule:nonzero;stroke:none" />
    <g
       transform="matrix(1.25,0,0,-1.25,334.75963,308.83839)"
       id="g384">
      <path
         d="M 0,0 2.052,0 1.024,9.838 0,0 z m 2.306,-2.311 -2.564,0 -0.357,-3.522 -2.308,0 1.899,17.986 4.099,0 1.846,-17.986 -2.255,0 -0.36,3.522 z"
         id="path386"
         style="fill:#557d48;fill-opacity:1;fill-rule:nonzero;stroke:none" />
    </g>
    <g
       transform="matrix(1.25,0,0,-1.25,342.71133,293.64676)"
       id="g388">
      <path
         d="m 0,0 2.303,0 0,-15.67 2.718,0 0,-2.313 -5.021,0 L 0,0 z"
         id="path390"
         style="fill:#557d48;fill-opacity:1;fill-rule:nonzero;stroke:none" />
    </g>
    <path
       d="m 287.21413,321.97476 -3.3075,0 0,22.63 3.3075,0 0,-22.63 z m -7.2175,-3.91625 8.5175,0 c 1.475,0 2.6087,1.22125 2.6087,2.6125 l 0,25.28125 c 0,1.39249 -1.175,2.57 -2.6087,2.57 l -8.5175,0 0,-30.46375 z"
       id="path392"
       style="fill:#557d48;fill-opacity:1;fill-rule:nonzero;stroke:none" />
    <path
       d="m 298.50663,331.67851 2.825,0 0,-9.70375 -2.825,0 0,9.70375 z m 3.3,3.9175 -3.3,0 0,12.92625 -3.9138,0 0,-30.46375 8.0388,0 c 1.48,0 2.6087,1.22125 2.6087,2.6125 l 0,10.6175 c 0,1.0875 -0.565,1.915 -1.3462,2.13375 1.1712,0.25875 1.8275,1.47875 1.8275,2.5675 l 0,12.5325 -3.915,0 0,-12.92625 z"
       id="path394"
       style="fill:#557d48;fill-opacity:1;fill-rule:nonzero;stroke:none" />
    <path
       d="m 316.19033,321.97476 -3.305,0 0,22.63 3.305,0 0,-22.63 z m -7.2125,-1.30375 c 0,-1.39125 1.215,-2.6125 2.6025,-2.6125 l 5.9113,0 c 1.4787,0 2.6075,1.22125 2.6075,2.6125 l 0,25.28125 c 0,1.39249 -1.1725,2.57 -2.6075,2.57 l -5.9113,0 c -1.3875,0 -2.6025,-1.17751 -2.6025,-2.57 l 0,-25.28125 z"
       id="path396"
       style="fill:#557d48;fill-opacity:1;fill-rule:nonzero;stroke:none" />
    <path
       d="m 330.78283,321.97476 -3.2925,0 0,8.79 3.2925,0 0,-8.79 z m -7.2075,-3.91625 8.515,0 c 1.4775,0 2.6063,1.22125 2.6063,2.6125 l 0,11.44375 c 0,1.3925 -1.1725,2.56625 -2.6063,2.56625 l -4.6062,0 0,13.84125 -3.9088,0 0,-13.84125 0,-16.6225 z"
       id="path398"
       style="fill:#557d48;fill-opacity:1;fill-rule:nonzero;stroke:none" />
    <g
       transform="matrix(1.25,0,0,-1.25,341.21283,339.34014)"
       id="g400">
      <path
         d="m 0,0 0,-4.213 2.644,0 0,7.869 -3.684,0 c -1.217,0 -2.087,1.01 -2.087,2.054 l 0,9.225 c 0,1.218 0.835,2.09 2.087,2.09 l 4.726,0 c 1.181,0 2.086,-0.872 2.086,-2.055 l 0,-5.117 -3.128,0 0,4.039 -2.644,0 0,-7.102 3.686,0 c 1.181,0 2.086,-0.976 2.086,-2.092 l 0,-9.988 c 0,-1.113 -0.938,-2.056 -2.086,-2.056 l -4.726,0 c -1.114,0 -2.087,0.943 -2.087,2.056 L -3.127,0 0,0 z"
         id="path402"
         style="fill:#557d48;fill-opacity:1;fill-rule:nonzero;stroke:none" />
    </g>
    <path
       d="m 347.21783,289.94476 -66.0112,0 0,0.88125 66.0112,0 0,-0.88125 z"
       id="path404"
       style="fill:#557d48;fill-opacity:1;fill-rule:nonzero;stroke:none" />
    <g
       transform="matrix(1.25,0,0,-1.25,278.41993,362.66413)"
       id="g406">
      <path
         d="m 0,0 c -3.479,0 -6.313,2.833 -6.313,6.319 l 0,45.547 c 0,3.488 2.834,6.327 6.313,6.327 l 0,-0.746 c -3.073,0 -5.572,-2.504 -5.572,-5.581 l 0,-45.547 C -5.572,3.243 -3.073,0.744 0,0.744 L 0,0 z"
         id="path408"
         style="fill:#557d48;fill-opacity:1;fill-rule:nonzero;stroke:none" />
    </g>
    <g
       transform="matrix(1.25,0,0,-1.25,350.15333,362.66413)"
       id="g410">
      <path
         d="m 0,0 0,0.744 c 3.072,0 5.573,2.499 5.573,5.575 l 0,45.547 c 0,3.077 -2.501,5.581 -5.573,5.581 l 0,0.746 c 3.479,0 6.311,-2.839 6.311,-6.327 l 0,-45.547 C 6.311,2.833 3.479,0 0,0"
         id="path412"
         style="fill:#557d48;fill-opacity:1;fill-rule:nonzero;stroke:none" />
    </g>
    <g
       transform="matrix(1.25,0,0,-1.25,342.93533,352.56525)"
       id="g414">
      <path
         d="m 0,0 -0.019,0 c -0.043,-0.262 -0.097,-0.662 -0.139,-0.887 l -0.146,-0.821 0.564,0 -0.13,0.821 C 0.085,-0.65 0.034,-0.257 0,0 m -41.707,0.13 c -0.048,0 -0.098,0 -0.147,-0.018 l 0,-2.705 c 0.041,-0.013 0.092,-0.013 0.135,-0.013 0.365,0 0.68,0.363 0.68,1.446 0,0.801 -0.203,1.29 -0.668,1.29 m 24.478,-0.464 c 0,0.285 -0.134,0.501 -0.44,0.501 -0.089,0 -0.159,-0.006 -0.199,-0.021 l 0,-1.033 0.158,0 c 0.272,0 0.481,0.229 0.481,0.553 m 20.655,-2.86 -1.762,0 0,3.917 0.758,0 0,-3.277 1.004,0 0,-0.64 z m -2.933,0 -0.167,0.891 -0.703,0 -0.176,-0.891 -0.739,0 0.854,3.917 0.91,0 0.764,-3.917 -0.743,0 z m -2.167,0 -0.698,0 -0.596,1.486 c -0.133,0.33 -0.305,0.829 -0.4,1.184 l -0.017,0 c 0.023,-0.399 0.054,-1.006 0.054,-1.794 l 0,-0.876 -0.664,0 0,3.917 0.697,0 0.607,-1.535 c 0.118,-0.304 0.303,-0.81 0.415,-1.148 l 0.009,0 c -0.022,0.416 -0.073,1.095 -0.073,1.815 l 0,0.868 0.666,0 0,-3.917 z m -4.073,-0.047 c -0.891,0 -1.237,0.938 -1.237,2.017 0,1.069 0.423,1.992 1.3,1.992 0.938,0 1.206,-1.04 1.206,-1.935 0,-1.479 -0.524,-2.074 -1.269,-2.074 m -1.725,0.047 -0.763,0 0,3.917 0.763,0 0,-3.917 z m -1.622,0.637 c 0.13,0 0.276,0.028 0.368,0.061 l 0.075,-0.641 c -0.112,-0.055 -0.328,-0.093 -0.588,-0.093 -1.004,0 -1.483,0.818 -1.483,1.936 0,1.475 0.822,2.05 1.58,2.05 0.27,0 0.456,-0.048 0.531,-0.106 L -8.736,0.014 c -0.091,0.038 -0.188,0.073 -0.358,0.073 -0.429,0 -0.822,-0.372 -0.822,-1.342 0,-0.935 0.355,-1.302 0.822,-1.302 m -2.511,-0.637 -0.162,0.891 -0.708,0 -0.176,-0.891 -0.74,0 0.851,3.917 0.915,0 0.761,-3.917 -0.741,0 z m -2.707,0 c -0.05,0.106 -0.14,0.505 -0.197,0.939 -0.07,0.483 -0.191,0.622 -0.444,0.622 l -0.113,0 0,-1.561 -0.764,0 0,3.858 c 0.24,0.047 0.538,0.077 0.834,0.077 0.417,0 0.795,-0.065 1.045,-0.295 0.239,-0.213 0.314,-0.474 0.314,-0.812 0,-0.42 -0.209,-0.794 -0.604,-0.976 l 0,-0.015 c 0.267,-0.108 0.401,-0.351 0.474,-0.775 0.074,-0.437 0.183,-0.92 0.247,-1.062 l -0.792,0 z m -2.333,0.365 c -0.23,-0.259 -0.627,-0.399 -1.287,-0.399 -0.288,0 -0.529,0.02 -0.701,0.047 l 0,3.845 c 0.229,0.055 0.534,0.077 0.865,0.077 0.367,0 0.718,-0.048 0.993,-0.281 0.206,-0.174 0.296,-0.436 0.296,-0.707 0,-0.35 -0.177,-0.691 -0.566,-0.856 l 0,-0.023 c 0.455,-0.129 0.696,-0.499 0.696,-0.937 0,-0.32 -0.11,-0.574 -0.296,-0.766 m -2.668,-0.365 -0.765,0 0,3.917 0.765,0 0,-3.917 z m -1.988,0 -0.855,0 -0.872,3.917 0.842,0 0.282,-1.692 c 0.062,-0.426 0.142,-0.901 0.196,-1.364 l 0.009,0 c 0.054,0.467 0.119,0.938 0.193,1.382 l 0.262,1.674 0.839,0 -0.896,-3.917 z m -3.477,0 c -0.053,0.106 -0.139,0.505 -0.195,0.939 -0.07,0.483 -0.194,0.622 -0.439,0.622 l -0.12,0 0,-1.561 -0.76,0 0,3.858 c 0.237,0.047 0.542,0.077 0.83,0.077 0.419,0 0.797,-0.065 1.044,-0.295 0.241,-0.213 0.314,-0.474 0.314,-0.812 0,-0.42 -0.21,-0.794 -0.604,-0.976 l 0,-0.015 c 0.267,-0.108 0.402,-0.351 0.479,-0.775 0.073,-0.437 0.182,-0.92 0.249,-1.062 l -0.798,0 z m -3.262,-0.047 c -0.894,0 -1.243,0.938 -1.243,2.017 0,1.069 0.425,1.992 1.299,1.992 0.939,0 1.208,-1.04 1.208,-1.935 0,-1.479 -0.521,-2.074 -1.264,-2.074 m -2.078,0.393 c -0.267,-0.251 -0.648,-0.38 -1.194,-0.38 -0.241,0 -0.478,0.027 -0.63,0.047 l 0,3.845 c 0.191,0.047 0.468,0.077 0.773,0.077 0.495,0 0.836,-0.118 1.087,-0.348 0.339,-0.306 0.515,-0.825 0.515,-1.584 0,-0.79 -0.204,-1.355 -0.551,-1.657 m -2.99,-0.346 -0.171,0.891 -0.701,0 -0.174,-0.891 -0.742,0 0.85,3.917 0.912,0 0.76,-3.917 -0.734,0 z m -1.991,0 -1.762,0 0,3.917 0.763,0 0,-3.277 0.999,0 0,-0.64 z m -2.413,1.504 c 0,-1.004 -0.384,-1.551 -1.134,-1.551 -0.821,0 -1.141,0.563 -1.141,1.543 l 0,2.421 0.765,0 0,-2.546 c 0,-0.575 0.165,-0.749 0.369,-0.749 0.222,0 0.378,0.154 0.378,0.749 l 0,2.546 0.763,0 0,-2.413 z m -3.279,-1.158 c -0.266,-0.251 -0.651,-0.38 -1.19,-0.38 -0.246,0 -0.483,0.027 -0.634,0.047 l 0,3.845 c 0.192,0.047 0.469,0.077 0.772,0.077 0.496,0 0.839,-0.118 1.087,-0.348 0.339,-0.306 0.512,-0.825 0.512,-1.584 0,-0.79 -0.201,-1.355 -0.547,-1.657 m -3.575,-0.393 c -0.889,0 -1.234,0.938 -1.234,2.017 0,1.069 0.423,1.992 1.293,1.992 0.945,0 1.211,-1.04 1.211,-1.935 0,-1.479 -0.523,-2.074 -1.27,-2.074 m -2.281,0.047 -0.068,1.371 c -0.026,0.369 -0.049,0.876 -0.041,1.299 l -0.014,0 c -0.066,-0.423 -0.171,-0.902 -0.25,-1.206 l -0.344,-1.402 -0.535,0 -0.327,1.381 c -0.068,0.312 -0.174,0.8 -0.239,1.227 l -0.011,0 c -0.014,-0.427 -0.043,-0.922 -0.062,-1.313 l -0.07,-1.357 -0.652,0 0.281,3.917 0.81,0 0.316,-1.42 c 0.102,-0.494 0.202,-0.928 0.273,-1.373 l 0.015,0 c 0.057,0.437 0.146,0.879 0.24,1.373 l 0.317,1.42 0.804,0 0.242,-3.917 -0.685,0 z m -3.768,-0.862 54.87,0 0,6.228 -54.87,0 0,-6.228 z m 44.692,4.161 c -0.305,0 -0.473,-0.498 -0.473,-1.342 0,-0.888 0.168,-1.346 0.48,-1.346 0.322,0 0.445,0.585 0.445,1.383 0,0.684 -0.102,1.305 -0.452,1.305 m -38.618,0 c -0.304,0 -0.471,-0.498 -0.471,-1.342 0,-0.888 0.167,-1.346 0.478,-1.346 0.328,0 0.448,0.585 0.448,1.383 0,0.684 -0.106,1.305 -0.455,1.305 m 18.996,0.041 c -0.067,0 -0.148,-0.005 -0.187,-0.023 l 0,-1.167 0.141,0 c 0.329,0 0.518,0.264 0.518,0.609 0,0.337 -0.137,0.57 -0.472,0.581 M -33.603,0 -33.621,0 c -0.04,-0.262 -0.098,-0.662 -0.138,-0.887 l -0.144,-0.821 0.555,0 -0.125,0.821 c -0.043,0.237 -0.092,0.63 -0.13,0.887 m 15.893,-1.454 -0.158,0 0,-1.175 c 0.04,-0.008 0.1,-0.008 0.159,-0.008 0.318,0 0.567,0.191 0.567,0.582 0,0.4 -0.267,0.601 -0.568,0.601 m 2.827,1.6 c -0.07,0 -0.143,-0.005 -0.183,-0.023 l 0,-1.167 0.136,0 c 0.336,0 0.523,0.264 0.523,0.609 0,0.337 -0.136,0.57 -0.476,0.581 M -28.021,0.105 c -0.301,0 -0.471,-0.498 -0.471,-1.342 0,-0.888 0.17,-1.346 0.479,-1.346 0.328,0 0.445,0.585 0.445,1.383 0,0.684 -0.106,1.305 -0.453,1.305 M -12.096,0 -12.115,0 c -0.039,-0.262 -0.101,-0.662 -0.141,-0.887 l -0.145,-0.821 0.556,0 -0.124,0.821 c -0.042,0.237 -0.092,0.63 -0.127,0.887 m -18.935,0.13 c -0.052,0 -0.102,0 -0.146,-0.018 l 0,-2.705 c 0.037,-0.013 0.092,-0.013 0.132,-0.013 0.364,0 0.685,0.363 0.685,1.446 0,0.801 -0.209,1.29 -0.671,1.29"
         id="path416"
         style="fill:#557d48;fill-opacity:1;fill-rule:nonzero;stroke:none" />
    </g>
    <g
       transform="matrix(1.25,0,0,-1.25,314.43793,254.85163)"
       id="g418">
      <path
         d="M 0,0 C -3.039,-4.029 -3.414,-6.724 -1.644,-11.75 -0.511,-14.961 0,-19.189 0,-19.189 c 0,0 0.507,4.228 1.64,7.439 C 3.407,-6.724 3.036,-4.029 0,0"
         id="path420"
         style="fill:#557d48;fill-opacity:1;fill-rule:nonzero;stroke:none" />
    </g>
    <g
       transform="matrix(1.25,0,0,-1.25,314.15043,278.83226)"
       id="g422">
      <path
         d="m 0,0 c 0,0 -5.315,1.744 -7.363,5.7 -2.048,3.957 -0.952,6.638 -0.701,7.259 0,0 3.231,-1.512 3.916,-5.218 C -3.66,5.068 -2.933,1.458 0,0"
         id="path424"
         style="fill:#557d48;fill-opacity:1;fill-rule:nonzero;stroke:none" />
    </g>
    <g
       transform="matrix(1.25,0,0,-1.25,314.71873,278.83226)"
       id="g426">
      <path
         d="m 0,0 c 0,0 5.316,1.744 7.361,5.7 2.052,3.957 0.958,6.638 0.703,7.259 0,0 -3.231,-1.512 -3.912,-5.218 C 3.659,5.068 2.933,1.458 0,0"
         id="path428"
         style="fill:#557d48;fill-opacity:1;fill-rule:nonzero;stroke:none" />
    </g>
    <g
       transform="matrix(1.25,0,0,-1.25,313.92893,280.21963)"
       id="g430">
      <path
         d="m 0,0 c 0,0 -1.406,-2.447 -3.574,-3.053 -2.163,-0.606 -3.377,0.21 -3.658,0.397 0,0 1.101,1.109 2.979,1.398 C -3.061,-1.07 -1.022,-1.301 0,0"
         id="path432"
         style="fill:#557d48;fill-opacity:1;fill-rule:nonzero;stroke:none" />
    </g>
    <g
       transform="matrix(1.25,0,0,-1.25,314.57163,279.47988)"
       id="g434">
      <path
         d="m 0,0 c 0,0 4.599,-1.901 8.271,-0.418 3.677,1.482 4.491,3.925 4.683,4.493 0,0 -3.059,0.848 -5.668,-1.256 C 5.402,1.301 2.822,-0.715 0,0"
         id="path436"
         style="fill:#557d48;fill-opacity:1;fill-rule:nonzero;stroke:none" />
    </g>
    <g
       transform="matrix(1.25,0,0,-1.25,313.85143,279.47988)"
       id="g438">
      <path
         d="m 0,0 c 0,0 -4.596,-1.901 -8.273,-0.418 -3.676,1.482 -4.49,3.925 -4.679,4.493 0,0 3.056,0.848 5.665,-1.256 C -5.405,1.301 -2.823,-0.715 0,0"
         id="path440"
         style="fill:#557d48;fill-opacity:1;fill-rule:nonzero;stroke:none" />
    </g>
    <g
       transform="matrix(1.25,0,0,-1.25,314.93913,280.21963)"
       id="g442">
      <path
         d="m 0,0 c 0,0 1.409,-2.447 3.575,-3.053 2.166,-0.606 3.378,0.21 3.659,0.397 0,0 -1.099,1.109 -2.979,1.398 C 3.063,-1.07 1.026,-1.301 0,0"
         id="path444"
         style="fill:#557d48;fill-opacity:1;fill-rule:nonzero;stroke:none" />
    </g>
    <g
       transform="matrix(1.25,0,0,-1.25,314.43793,280.71213)"
       id="g446">
      <path
         d="M 0,0 C 0,0 -0.99,-4.329 0,-4.329 0.985,-4.329 0,0 0,0"
         id="path448"
         style="fill:#557d48;fill-opacity:1;fill-rule:nonzero;stroke:none" />
    </g>
  </g>
</svg>
